<svg xmlns="http://www.w3.org/2000/svg" width="1000" height="800" viewBox="0 0 1000 800">
  <defs>
    <linearGradient id="aboutBg" x1="0%" y1="0%" x2="100%" y2="100%">
      <stop offset="0%" style="stop-color:#3498db;stop-opacity:1" />
      <stop offset="100%" style="stop-color:#2980b9;stop-opacity:1" />
    </linearGradient>
  </defs>
  <rect width="1000" height="800" fill="url(#aboutBg)"/>
  
  <!-- Workbench table -->
  <rect x="100" y="500" width="800" height="20" fill="rgba(139,69,19,0.8)"/>
  <rect x="150" y="520" width="15" height="200" fill="rgba(139,69,19,0.8)"/>
  <rect x="835" y="520" width="15" height="200" fill="rgba(139,69,19,0.8)"/>
  
  <!-- Gaming console on workbench -->
  <rect x="250" y="420" width="250" height="70" fill="rgba(50,50,50,0.9)" rx="5"/>
  <circle cx="320" cy="455" r="8" fill="rgba(100,200,100,0.9)"/>
  <rect x="360" y="445" width="80" height="20" fill="rgba(20,20,20,0.9)" rx="2"/>
  
  <!-- Tools on workbench -->
  <rect x="550" y="460" width="120" height="8" fill="rgba(200,200,200,0.9)" rx="4"/>
  <circle cx="550" cy="464" r="12" fill="rgba(220,100,100,0.9)"/>
  
  <rect x="700" y="455" width="80" height="12" fill="rgba(200,200,200,0.9)" rx="6"/>
  <polygon points="780,455 795,461 780,467" fill="rgba(150,150,150,0.9)"/>
  
  <!-- Parts and components -->
  <circle cx="600" cy="480" r="6" fill="rgba(255,200,100,0.8)"/>
  <circle cx="620" cy="480" r="6" fill="rgba(255,200,100,0.8)"/>
  <circle cx="640" cy="480" r="6" fill="rgba(255,200,100,0.8)"/>
  <rect x="660" y="475" width="40" height="10" fill="rgba(50,100,200,0.8)" rx="2"/>
  
  <!-- Background elements - shelves with consoles -->
  <rect x="150" y="250" width="700" height="120" fill="rgba(255,255,255,0.1)" rx="5"/>
  <rect x="200" y="280" width="80" height="60" fill="rgba(100,100,100,0.3)" rx="3"/>
  <rect x="320" y="280" width="80" height="60" fill="rgba(100,100,100,0.3)" rx="3"/>
  <rect x="440" y="280" width="80" height="60" fill="rgba(100,100,100,0.3)" rx="3"/>
  <rect x="560" y="280" width="80" height="60" fill="rgba(100,100,100,0.3)" rx="3"/>
  <rect x="680" y="280" width="80" height="60" fill="rgba(100,100,100,0.3)" rx="3"/>
</svg>
