<svg xmlns="http://www.w3.org/2000/svg" width="800" height="600" viewBox="0 0 800 600">
  <defs>
    <linearGradient id="hardwareBg" x1="0%" y1="0%" x2="100%" y2="100%">
      <stop offset="0%" style="stop-color:#2ecc71;stop-opacity:1" />
      <stop offset="100%" style="stop-color:#27ae60;stop-opacity:1" />
    </linearGradient>
  </defs>
  <rect width="800" height="600" fill="url(#hardwareBg)"/>
  
  <!-- Circuit board pattern -->
  <line x1="150" y1="200" x2="650" y2="200" stroke="rgba(255,255,255,0.3)" stroke-width="4"/>
  <line x1="150" y1="300" x2="650" y2="300" stroke="rgba(255,255,255,0.3)" stroke-width="4"/>
  <line x1="150" y1="400" x2="650" y2="400" stroke="rgba(255,255,255,0.3)" stroke-width="4"/>
  <line x1="250" y1="150" x2="250" y2="450" stroke="rgba(255,255,255,0.3)" stroke-width="4"/>
  <line x1="400" y1="150" x2="400" y2="450" stroke="rgba(255,255,255,0.3)" stroke-width="4"/>
  <line x1="550" y1="150" x2="550" y2="450" stroke="rgba(255,255,255,0.3)" stroke-width="4"/>
  
  <!-- Electronic components -->
  <circle cx="250" cy="200" r="15" fill="rgba(255,255,255,0.8)"/>
  <circle cx="400" cy="300" r="15" fill="rgba(255,255,255,0.8)"/>
  <circle cx="550" cy="400" r="15" fill="rgba(255,255,255,0.8)"/>
  <rect x="360" y="180" width="80" height="40" fill="rgba(0,0,0,0.6)" rx="5"/>
  <rect x="510" y="280" width="80" height="40" fill="rgba(0,0,0,0.6)" rx="5"/>
  
  <!-- Gear icon for restoration -->
  <circle cx="400" cy="300" r="60" fill="none" stroke="rgba(255,255,255,0.9)" stroke-width="8"/>
  <path d="M 400 260 L 410 270 L 400 280 L 390 270 Z M 440 300 L 430 310 L 420 300 L 430 290 Z M 400 340 L 390 330 L 400 320 L 410 330 Z M 360 300 L 370 290 L 380 300 L 370 310 Z" fill="rgba(255,255,255,0.9)"/>
</svg>
